<?xml version="1.0" standalone="no"?><svg xmlns="http://www.w3.org/2000/svg" viewBox="0 0 1440 320"><path fill="#0099ff" fill-opacity="1" d="M0,288L24,250.7C48,213,96,139,144,133.3C192,128,240,192,288,202.7C336,213,384,171,432,149.3C480,128,528,128,576,128C624,128,672,128,720,160C768,192,816,256,864,256C912,256,960,192,1008,149.3C1056,107,1104,85,1152,106.7C1200,128,1248,192,1296,224C1344,256,1392,256,1416,256L1440,256L1440,0L1416,0C1392,0,1344,0,1296,0C1248,0,1200,0,1152,0C1104,0,1056,0,1008,0C960,0,912,0,864,0C816,0,768,0,720,0C672,0,624,0,576,0C528,0,480,0,432,0C384,0,336,0,288,0C240,0,192,0,144,0C96,0,48,0,24,0L0,0Z"></path></svg>